# xmcd CD database file
#
# Track frame offsets:
#	150
#	17105
#	34203
#	50597
#	67351
#	82955
#	98391
#	113129
#	129579
#	149887
#	165476
#
# Disc length: 2437 seconds
#
# Revision: 0
# Processed by: cddbd v1.5.2PL0 Copyright (c) Steve Scherf et al.
# Submitted via: CDex 1.70beta2
#
DISCID=9909830b
DTITLE=Corey Sellers - This side of Ordinary
DYEAR=2003
DGENRE=Country
TTITLE0=Gotta get back
TTITLE1=Don't forget
TTITLE2=Who am I
TTITLE3=Mystery
TTITLE4=Maybe
TTITLE5=Glad
TTITLE6=This side of ordinary
TTITLE7=Release me
TTITLE8=How wunderful
TTITLE9=Something more
TTITLE10=Bonus Track
EXTD=YEAR: 2003
EXTT0=
EXTT1=
EXTT2=
EXTT3=
EXTT4=
EXTT5=
EXTT6=
EXTT7=
EXTT8=
EXTT9=
EXTT10=
PLAYORDER=
